<svg width="2832" height="394" viewBox="0 0 2832 394" fill="none" xmlns="http://www.w3.org/2000/svg">
<path fill-rule="evenodd" clip-rule="evenodd" d="M789.419 253.443C776.302 244.829 758.955 239.48 747.056 228.382C740.812 222.558 730.834 202.652 724.377 200.294C694.804 189.502 665.555 171.684 636.632 157.625C628.622 153.731 620.788 146.203 612.275 143.843C597.803 139.83 582.74 144.76 568.356 139.82C553.322 134.658 545.342 126.517 532.233 117.017C524.358 111.311 513.809 110.222 505.407 105.353C480.935 91.1731 475.034 108.296 456.536 97.7546V96.542C467.592 91.1375 512.789 98.3822 534.389 112.785C540.591 116.92 547.146 126.973 553.16 129.965C571.893 139.283 588.392 133.377 605.533 137.133C619.069 140.099 631.757 149.863 643.83 157.044C669.329 172.212 697.86 184.228 724.468 196.067C732.484 199.634 741.435 218.591 747.844 225.548C758.862 237.509 777.565 239.897 789.658 252.637" fill="white"/>
<path d="M789.419 253.443C776.302 244.829 758.955 239.48 747.056 228.382C740.812 222.558 730.834 202.652 724.377 200.294C694.804 189.502 665.555 171.684 636.632 157.625C628.622 153.731 620.788 146.203 612.275 143.843C597.803 139.83 582.74 144.76 568.356 139.82C553.322 134.658 545.342 126.517 532.233 117.017C524.358 111.311 513.809 110.222 505.407 105.353C480.935 91.1731 475.034 108.296 456.536 97.7546V96.542C467.592 91.1375 512.789 98.3822 534.389 112.785C540.591 116.92 547.146 126.973 553.16 129.965C571.893 139.283 588.392 133.377 605.533 137.133C619.069 140.099 631.757 149.863 643.83 157.044C669.329 172.212 697.86 184.228 724.468 196.067C732.484 199.634 741.435 218.591 747.844 225.548C758.862 237.509 777.565 239.897 789.658 252.637" stroke="white" stroke-width="0.00153846" stroke-linejoin="round"/>
<path fill-rule="evenodd" clip-rule="evenodd" d="M458.499 89.09C455.512 75.7314 460.157 60.0661 457.264 47.1469C456.736 44.7845 447.187 48.6207 440.454 44.9348C433.99 41.397 436.898 75.9346 436.915 81.6041C436.925 85.4233 438.386 96.7268 437.571 93.0346C436.822 89.6375 431.676 96.4854 435.446 86.597H436.94C439.6 93.5764 435.13 103.455 431.114 94.5835C427.279 86.106 427.96 43.8798 436.192 39.6676C440.205 37.6146 443.619 43.169 446.817 43.2444C470.63 43.8056 457.877 65.1076 461.063 87.4328" fill="white"/>
<path d="M458.499 89.09C455.512 75.7314 460.157 60.0661 457.264 47.1469C456.736 44.7845 447.187 48.6207 440.454 44.9348C433.99 41.397 436.898 75.9346 436.915 81.6041C436.925 85.4233 438.386 96.7268 437.571 93.0346C436.822 89.6375 431.676 96.4854 435.446 86.597H436.94C439.6 93.5764 435.13 103.455 431.114 94.5835C427.279 86.106 427.96 43.8798 436.192 39.6676C440.205 37.6146 443.619 43.169 446.817 43.2444C470.63 43.8056 457.877 65.1076 461.063 87.4328" stroke="white" stroke-width="0.00153846" stroke-linejoin="round"/>
<path fill-rule="evenodd" clip-rule="evenodd" d="M423.447 97.2797C421.393 114.165 404.931 103.19 398.25 96.0555C396.677 94.3762 390.262 84.0653 390.843 84.0151C395.829 83.5836 411.562 91.2021 412.83 87.7072C413.762 85.1315 408.213 86.5056 406.096 85.3046C403.618 83.8987 400.213 80.3641 397.432 80.2042C390.346 79.7967 383.696 87.8906 378.161 87.7209C367.382 87.3907 357.033 82.6782 346.204 82.6718C342.989 82.6699 356.676 79.2878 353.403 85.2479C350.814 89.9613 340.459 82.6231 339.494 88.1476C338.391 94.4594 347.466 84.5452 342.829 94.6675C342.302 95.8155 336.141 92.2875 336.022 92.2298C328.635 88.6987 320.929 85.5164 313.3 81.9978C301.68 76.639 294.928 88.3338 281.536 83.3453C276.215 81.3633 297.134 79.16 297.26 79.1424C298.414 78.9825 296.331 82.099 295.228 82.5301C292.473 83.6064 289.692 80.2964 287.218 78.4903C285.636 77.3344 269.874 62.3039 269.891 68.3604C269.926 80.274 253.841 64.4901 253.641 65.1422C252.533 68.7519 256.247 72.8074 253.092 76.0858C252.488 76.7131 245.675 64.0941 244.103 62.2649C237.849 54.9973 225.74 39.5037 214.979 41.2918C211.076 41.9403 218.242 44.7137 218.107 46.2975C217.486 53.5781 212.465 65.8906 222.197 65.6066C225.043 65.5236 204.997 68.2727 205.071 64.1774C205.17 58.738 218.412 70.1461 222.697 68.7865C224.322 68.271 217.796 69.5819 218.207 71.5371L217.459 71.3882C216.122 63.3194 222.256 71.8402 222.116 71.734C216.513 67.4471 209.853 65.2444 205.142 63.4813C199.524 61.3791 217.206 64.7934 222.347 68.23C225.632 70.4261 214.433 64.1442 213.548 59.7598C212.749 55.8042 212.888 47.5273 216.258 47.9913C219.05 48.3755 211.692 39.3897 214.307 38.1534C223.143 33.9742 255.97 62.5839 251.171 74.9473C249.536 79.1594 251.328 63.4675 254.929 61.7567C257.751 60.4161 266.584 70.5035 269.731 71.1834C271.405 71.5449 268.205 66.3824 269.509 65.0726C277.363 57.1746 282.583 74.0505 287.59 77.0018C290.919 78.964 300.899 83.3613 297.201 83.7305C291.973 84.2527 276.49 79.7785 281.709 80.4142C294.886 82.0194 304.718 72.5967 318.132 80.1198C324.722 83.8162 330.033 86.9772 336.453 88.2816C339.029 88.8053 344.478 96.3115 342.376 94.4445C332.218 85.4137 346.611 81.4054 351.117 88.4275C351.314 88.7334 343.408 79.5759 346.616 79.4413C356.816 79.0132 366.627 83.8488 376.602 84.2489C383.379 84.5207 387.76 77.2697 394.992 77.2558C399.993 77.2464 413.564 84.0723 414.7 89.793C416.45 98.5887 392.347 82.7206 391.927 83.0604C389.449 85.0737 394.557 90.0158 397.139 91.8314C405.017 97.3693 419.644 113.285 422.324 95.7275" fill="white"/>
<path d="M423.447 97.2797C421.393 114.165 404.931 103.19 398.25 96.0555C396.677 94.3762 390.262 84.0653 390.843 84.0151C395.829 83.5836 411.562 91.2021 412.83 87.7072C413.762 85.1315 408.213 86.5056 406.096 85.3046C403.618 83.8987 400.213 80.3641 397.432 80.2042C390.346 79.7967 383.696 87.8906 378.161 87.7209C367.382 87.3907 357.033 82.6782 346.204 82.6718C342.989 82.6699 356.676 79.2878 353.403 85.2479C350.814 89.9613 340.459 82.6231 339.494 88.1476C338.391 94.4594 347.466 84.5452 342.829 94.6675C342.302 95.8155 336.141 92.2875 336.022 92.2298C328.635 88.6987 320.929 85.5164 313.3 81.9978C301.68 76.639 294.928 88.3338 281.536 83.3453C276.215 81.3633 297.134 79.16 297.26 79.1424C298.414 78.9825 296.331 82.099 295.228 82.5301C292.473 83.6064 289.692 80.2964 287.218 78.4903C285.636 77.3345 269.874 62.3039 269.891 68.3604C269.926 80.274 253.841 64.4901 253.641 65.1422C252.533 68.7519 256.247 72.8074 253.092 76.0858C252.488 76.7131 245.675 64.0941 244.103 62.2649C237.849 54.9973 225.74 39.5037 214.979 41.2918C211.076 41.9403 218.242 44.7137 218.107 46.2975C217.486 53.5781 212.465 65.8906 222.197 65.6066C225.043 65.5236 204.997 68.2727 205.071 64.1774C205.17 58.738 218.412 70.1461 222.697 68.7865C224.322 68.271 217.796 69.5819 218.207 71.5371L217.459 71.3882C216.122 63.3194 222.256 71.8402 222.116 71.734C216.513 67.4471 209.853 65.2444 205.142 63.4813C199.524 61.3791 217.206 64.7934 222.347 68.23C225.632 70.4261 214.433 64.1442 213.548 59.7598C212.749 55.8042 212.888 47.5273 216.258 47.9913C219.05 48.3755 211.692 39.3897 214.307 38.1534C223.143 33.9742 255.97 62.5839 251.171 74.9473C249.536 79.1594 251.328 63.4675 254.929 61.7567C257.751 60.4161 266.584 70.5035 269.731 71.1834C271.405 71.5449 268.205 66.3824 269.509 65.0726C277.363 57.1746 282.583 74.0505 287.59 77.0018C290.919 78.964 300.899 83.3613 297.201 83.7305C291.973 84.2527 276.49 79.7785 281.709 80.4142C294.886 82.0194 304.718 72.5967 318.132 80.1198C324.722 83.8162 330.033 86.9772 336.453 88.2816C339.029 88.8053 344.478 96.3115 342.376 94.4446C332.218 85.4137 346.611 81.4054 351.117 88.4275C351.314 88.7334 343.408 79.5759 346.616 79.4413C356.816 79.0132 366.627 83.8488 376.602 84.2489C383.379 84.5207 387.76 77.2697 394.992 77.2558C399.993 77.2464 413.564 84.0723 414.7 89.793C416.45 98.5887 392.347 82.7206 391.927 83.0604C389.449 85.0736 394.557 90.0158 397.139 91.8314C405.017 97.3693 419.644 113.285 422.324 95.7275" stroke="white" stroke-width="0.00153846" stroke-linejoin="round"/>
<path fill-rule="evenodd" clip-rule="evenodd" d="M204.157 73.3066C202.863 86.8528 174.293 77.8804 165.133 76.023C160.979 75.1809 149.621 76.0412 152.798 72.7218C156.452 68.9032 163.59 77.0858 159.349 80.2794C158.704 80.7648 134.462 75.8486 132.134 72.8596C125.233 64.0012 134.868 60.1388 139.708 56.1137C141.342 54.7544 133.926 51.6952 133.988 54.0795C134.037 55.9744 137.986 56.0197 137.545 57.84C135.479 66.3625 121.059 77.7168 115.087 66.9696C110.118 58.0288 126.893 51.5161 122.146 44.4079C116.784 36.381 87.5889 38.9214 82.8353 38.4267C70.1536 37.1072 63.4929 30.464 53.9447 22.2607C51.73 20.3579 50.2755 28.9642 47.589 28.4232C42.2652 27.3509 34.3639 23.4845 35.3723 16.1206C35.7644 13.257 30.4681 18.3423 28.1891 17.3683C18.2448 13.1183 12.6438 -3.72327 1.0424 2.78515L0.932617 2.50702C12.1201 -8.2467 37.5546 23.0204 46.7765 26.7058C50.8061 28.3162 52.3614 17.5359 56.3802 20.476C58.2037 21.81 58.968 27.2388 60.4394 28.9538C63.0768 32.0281 77.2308 35.2814 82.9126 35.939C91.7541 36.9625 119.748 31.2452 125.06 46.9221C127.988 55.5662 109.253 56.2162 115.279 66.203C118.554 71.6309 130.565 67.3536 132.79 65.571C138.596 60.9209 131.837 54.3683 135.418 51.1803C135.967 50.6912 144.09 56.3264 140.876 59.3061C139.035 61.0129 126.886 65.2522 133.821 70.3168C139.736 74.6361 147.533 72.3592 154.368 76.3303C164.342 82.1248 154.395 77.4754 153.252 70.2632C152.482 65.403 161.265 72.6564 165.335 73.4589C173.988 75.1652 201.221 83.7607 202.765 73.8091" fill="white"/>
<path d="M204.157 73.3066C202.863 86.8528 174.293 77.8804 165.133 76.023C160.979 75.1809 149.621 76.0412 152.798 72.7218C156.452 68.9032 163.59 77.0858 159.349 80.2794C158.704 80.7648 134.462 75.8486 132.134 72.8596C125.233 64.0012 134.868 60.1388 139.708 56.1137C141.342 54.7544 133.926 51.6952 133.988 54.0795C134.037 55.9744 137.986 56.0197 137.545 57.84C135.479 66.3625 121.059 77.7168 115.087 66.9696C110.118 58.0288 126.893 51.5161 122.146 44.4079C116.784 36.381 87.5889 38.9214 82.8353 38.4267C70.1536 37.1072 63.4929 30.464 53.9447 22.2607C51.73 20.3579 50.2755 28.9642 47.589 28.4232C42.2652 27.3509 34.3639 23.4845 35.3723 16.1206C35.7644 13.257 30.4681 18.3423 28.1891 17.3683C18.2448 13.1183 12.6438 -3.72327 1.0424 2.78515L0.932617 2.50702C12.1201 -8.2467 37.5546 23.0204 46.7765 26.7058C50.8061 28.3162 52.3614 17.5359 56.3802 20.476C58.2037 21.81 58.968 27.2388 60.4394 28.9538C63.0768 32.0281 77.2308 35.2814 82.9126 35.939C91.7541 36.9625 119.748 31.2452 125.06 46.9221C127.988 55.5662 109.253 56.2162 115.279 66.203C118.554 71.6309 130.565 67.3536 132.79 65.571C138.596 60.9209 131.837 54.3683 135.418 51.1803C135.967 50.6912 144.09 56.3264 140.876 59.3061C139.035 61.0129 126.886 65.2522 133.821 70.3168C139.736 74.6361 147.533 72.3592 154.368 76.3303C164.342 82.1248 154.395 77.4754 153.252 70.2632C152.482 65.403 161.265 72.6564 165.335 73.4589C173.988 75.1652 201.221 83.7607 202.765 73.8091" stroke="white" stroke-width="0.00153846" stroke-linejoin="round"/>
<path fill-rule="evenodd" clip-rule="evenodd" d="M792.959 252.406C804.429 252.993 816.272 252.349 827.304 256.383C829.86 257.318 846.64 265.645 839.126 266.089L838.46 264.793C838.833 263.928 841.419 265.96 840.621 266.139C831.404 268.19 820.756 258.399 811.483 257.957C804.944 257.647 798.539 257.584 791.969 256.518" fill="white"/>
<path d="M792.959 252.406C804.429 252.993 816.272 252.349 827.304 256.383C829.86 257.318 846.64 265.645 839.126 266.089L838.46 264.793C838.833 263.928 841.419 265.96 840.621 266.139C831.404 268.19 820.756 258.399 811.483 257.957C804.944 257.647 798.539 257.584 791.969 256.518" stroke="white" stroke-width="0.00153846" stroke-linejoin="round"/>
<path fill-rule="evenodd" clip-rule="evenodd" d="M822.439 273.281C794.996 277.531 768.3 270.783 741.087 271.63C689.676 273.23 637.877 282.876 586.581 287.506L586.377 285.799C599.272 282.517 611.922 283.669 624.796 281.382C689.497 269.879 756.627 263.199 821.907 271.102" fill="white"/>
<path d="M822.439 273.281C794.996 277.531 768.3 270.783 741.087 271.63C689.676 273.23 637.877 282.876 586.581 287.506L586.377 285.799C599.272 282.517 611.922 283.669 624.796 281.382C689.497 269.879 756.627 263.199 821.907 271.102" stroke="white" stroke-width="0.00153846" stroke-linejoin="round"/>
<path fill-rule="evenodd" clip-rule="evenodd" d="M585.142 285.631C556.412 291.786 520.993 287.434 491.783 285.556C481.467 284.893 472.056 285.583 461.88 284.071C455.724 283.157 446.822 285.186 447.618 284.071L447.637 281.534C447.473 281.362 456.611 275.7 464.144 278.998C474.617 283.584 481.532 279.149 492.445 280.7C517.711 284.289 560.128 287.763 584.485 282.651" fill="white"/>
<path d="M585.142 285.631C556.412 291.786 520.993 287.434 491.783 285.556C481.467 284.893 472.056 285.583 461.88 284.071C455.724 283.157 446.822 285.186 447.618 284.071L447.637 281.534C447.473 281.362 456.611 275.7 464.144 278.998C474.617 283.584 481.532 279.149 492.445 280.7C517.711 284.289 560.128 287.763 584.485 282.651" stroke="white" stroke-width="0.00153846" stroke-linejoin="round"/>
<path fill-rule="evenodd" clip-rule="evenodd" d="M458.951 281.314C462.857 284.228 488.408 318.321 469.09 311.212C461.624 308.462 474.342 302.379 478.582 303.76C482.878 305.158 486.502 309.967 489.201 313.996C489.358 314.231 489.469 315.054 489.575 314.781C490.053 313.544 487.536 316.127 486.409 316.297C483.601 316.722 491.934 313.563 494.715 314.19C502.307 315.901 508.402 320.004 515.678 322.776C520.175 324.489 535.617 325.375 539.006 329.239C544.731 335.762 543.837 323.818 554.123 327.355C564.313 330.858 554.685 337.074 557.883 336.438C581.745 331.692 601.746 341.697 623.458 347.174C628.026 348.326 636.342 336.026 640.725 335.473C647.098 334.665 650.929 341.026 643.961 344.569C643.796 344.654 643.402 344.988 643.449 344.779C645.145 337.097 655.559 347.081 660.014 348.305C660.248 348.37 660.804 347.686 660.571 347.759C652.461 350.297 644.581 348.019 636.967 350.611L636.841 350.044C646.426 344.357 651.991 346.506 660.78 352.605C660.917 352.699 643.422 352.348 642.579 342.114C642.192 337.42 635.084 352.446 621.458 352.023C614.581 351.81 605.242 344.283 598.227 342.227C590.763 340.037 582.289 340.719 574.673 339.838C553.008 337.334 535.518 335.991 507.855 323.459C495.342 317.79 490.435 319.397 484.296 314.551C481.771 312.558 466.852 305.89 467.78 307.201C473.753 315.629 464.894 292.577 457.989 286.316" fill="white"/>
<path d="M458.951 281.314C462.857 284.228 488.408 318.321 469.09 311.212C461.624 308.462 474.342 302.379 478.582 303.76C482.878 305.158 486.502 309.967 489.201 313.996C489.358 314.231 489.469 315.054 489.575 314.781C490.053 313.544 487.536 316.127 486.409 316.297C483.601 316.722 491.934 313.563 494.715 314.19C502.307 315.901 508.402 320.004 515.678 322.776C520.175 324.489 535.617 325.375 539.006 329.239C544.731 335.762 543.837 323.818 554.123 327.355C564.313 330.858 554.685 337.074 557.883 336.438C581.745 331.692 601.746 341.697 623.458 347.174C628.026 348.326 636.342 336.026 640.725 335.473C647.098 334.665 650.929 341.026 643.961 344.569C643.796 344.654 643.402 344.988 643.449 344.779C645.145 337.097 655.559 347.081 660.014 348.305C660.248 348.37 660.804 347.686 660.571 347.759C652.461 350.297 644.581 348.019 636.967 350.611L636.841 350.044C646.426 344.357 651.991 346.506 660.78 352.605C660.917 352.699 643.422 352.348 642.579 342.114C642.192 337.42 635.084 352.446 621.458 352.023C614.581 351.81 605.242 344.283 598.227 342.227C590.763 340.037 582.289 340.719 574.673 339.838C553.008 337.334 535.518 335.991 507.855 323.459C495.342 317.79 490.435 319.397 484.296 314.551C481.771 312.558 466.852 305.89 467.78 307.201C473.753 315.629 464.894 292.577 457.989 286.316" stroke="white" stroke-width="0.00153846" stroke-linejoin="round"/>
<path fill-rule="evenodd" clip-rule="evenodd" d="M652.274 363.555C678.591 354.236 711.921 350.347 738.391 359.332L738.326 360.985C711.906 352.408 680.967 361.125 653.898 361.729" fill="white"/>
<path d="M652.274 363.555C678.591 354.236 711.921 350.347 738.391 359.332L738.326 360.985C711.906 352.408 680.967 361.125 653.898 361.729" stroke="white" stroke-width="0.00153846" stroke-linejoin="round"/>
<path fill-rule="evenodd" clip-rule="evenodd" d="M683.643 377.671C691.038 377.589 693.971 371.108 701.91 369.658C713.688 367.506 742.209 371.839 753.133 379.589L752.683 381.24C741.767 377.514 724.874 371.834 713.612 371.132C701.197 370.359 694.281 383.161 682.752 378.51" fill="white"/>
<path d="M683.643 377.671C691.038 377.589 693.971 371.108 701.91 369.658C713.688 367.506 742.209 371.839 753.133 379.589L752.683 381.24C741.767 377.514 724.874 371.834 713.612 371.132C701.197 370.359 694.281 383.161 682.752 378.51" stroke="white" stroke-width="0.00153846" stroke-linejoin="round"/>
<path fill-rule="evenodd" clip-rule="evenodd" d="M757.986 379.731C765.894 380.232 835.47 374.978 837.437 381.522L837.019 382.71C826.483 378.606 814.154 385.398 803.282 386.108C787.79 387.12 773.158 385.444 757.617 384.169" fill="white"/>
<path d="M757.986 379.731C765.894 380.232 835.47 374.978 837.437 381.522L837.019 382.71C826.483 378.606 814.154 385.398 803.282 386.108C787.79 387.12 773.158 385.444 757.617 384.169" stroke="white" stroke-width="0.00153846" stroke-linejoin="round"/>
<path fill-rule="evenodd" clip-rule="evenodd" d="M819.267 380.622C830.58 372.727 843.543 366.491 856.937 368.588C860.313 369.115 862.366 375.756 865.694 374.894C878.373 371.613 890.595 372.278 904.527 370.369C912.375 369.293 926.087 358.515 933.39 361.706C942.487 365.685 938.104 384.464 952.244 386.369C961.557 387.622 967.571 378.767 978.024 380.182C984.333 381.035 987.832 386.618 994.001 386.694C1020.73 387.018 1049.04 380.119 1075 385.5L1074.38 389.916C1048.83 383.328 1019.43 392.088 993.225 390C984.4 389.297 979.051 383.597 969.738 384.11C962.997 384.481 958.836 390.395 951.222 389.28C937.698 387.3 941.214 371.799 934.066 365.6C929.906 361.994 910.714 371.635 904.439 372.595C875.982 376.945 848.21 367.721 822.417 381.341" fill="white"/>
<path d="M819.267 380.622C830.58 372.727 843.543 366.491 856.937 368.588C860.313 369.115 862.366 375.756 865.694 374.894C878.373 371.613 890.595 372.278 904.527 370.369C912.375 369.293 926.087 358.515 933.39 361.706C942.487 365.685 938.104 384.464 952.244 386.369C961.557 387.622 967.571 378.767 978.024 380.182C984.333 381.035 987.832 386.618 994.001 386.694C1020.73 387.018 1049.04 380.119 1075 385.5L1074.38 389.916C1048.83 383.328 1019.43 392.088 993.225 390C984.4 389.297 979.051 383.597 969.738 384.11C962.997 384.481 958.836 390.395 951.222 389.28C937.698 387.3 941.214 371.799 934.066 365.6C929.906 361.994 910.714 371.635 904.439 372.595C875.982 376.945 848.21 367.721 822.417 381.341" stroke="white" stroke-width="0.00153846" stroke-linejoin="round"/>
<path fill-rule="evenodd" clip-rule="evenodd" d="M753.209 229.459C790.637 221.574 826.736 230.01 864.308 228.477C902.859 226.904 940.012 229.606 978.789 232.389C996.002 233.625 1011.29 225.357 1028.14 226.021C1035.16 226.298 1037.16 228.966 1045.27 226.354C1051 224.51 1049.84 221.112 1055.93 221.371C1078.71 222.35 1102.98 220.963 1126.03 223.534C1134.1 224.433 1146.65 232.293 1153.45 230.208L1153.27 233.743C1142.33 237.447 1129.51 232.004 1118.24 231.368C1110.29 230.921 1102.05 234.409 1094.48 234.568C1081.93 234.831 1066.61 229.177 1053.97 230.635C1035.51 232.763 1015.07 240.962 996.536 240.856C915.455 240.392 833.335 224.23 752.34 232.144" fill="white"/>
<path d="M753.209 229.459C790.637 221.574 826.736 230.01 864.308 228.477C902.859 226.904 940.012 229.606 978.789 232.389C996.002 233.625 1011.29 225.357 1028.14 226.021C1035.16 226.298 1037.16 228.966 1045.27 226.354C1051 224.51 1049.84 221.112 1055.93 221.371C1078.71 222.35 1102.98 220.963 1126.03 223.534C1134.1 224.433 1146.65 232.293 1153.45 230.208L1153.27 233.743C1142.33 237.447 1129.51 232.004 1118.24 231.368C1110.29 230.921 1102.05 234.409 1094.48 234.568C1081.93 234.831 1066.61 229.177 1053.97 230.635C1035.51 232.763 1015.07 240.962 996.536 240.856C915.455 240.392 833.335 224.23 752.34 232.144" stroke="white" stroke-width="0.00153846" stroke-linejoin="round"/>
<path fill-rule="evenodd" clip-rule="evenodd" d="M894.644 327.089C882.356 326.551 867.414 329.392 858.93 328.135C835.372 324.647 809.584 319.066 787.86 318.982C778.977 318.946 771.272 317.357 763.104 313.038C760.442 311.629 757.741 307.244 755.13 308.784C748.87 312.474 742.995 318.221 736.167 321.714L735.841 320.963C742.734 317.421 748.759 310.843 755.495 307.682C755.977 307.456 782.499 316.844 787.704 316.927C810.347 317.286 835.249 322.869 858.687 326.632C864.228 327.521 863.496 322.483 868.399 322.805C877.02 323.374 885.807 324.443 894.423 325.308" fill="white"/>
<path d="M894.644 327.089C882.356 326.551 867.414 329.392 858.93 328.135C835.372 324.647 809.584 319.066 787.86 318.982C778.977 318.946 771.272 317.357 763.104 313.038C760.442 311.629 757.741 307.244 755.13 308.784C748.87 312.474 742.995 318.221 736.167 321.714L735.841 320.963C742.734 317.421 748.759 310.843 755.495 307.682C755.977 307.456 782.499 316.844 787.704 316.927C810.347 317.286 835.249 322.869 858.687 326.632C864.228 327.521 863.496 322.483 868.399 322.805C877.02 323.374 885.807 324.443 894.423 325.308" stroke="white" stroke-width="0.00153846" stroke-linejoin="round"/>
<path fill-rule="evenodd" clip-rule="evenodd" d="M985.446 345.497C968.895 347.786 953.64 352.373 936.769 352.075C926.979 351.899 919.352 344.957 909.411 348.766L909.234 347.701C921.011 342.211 933.657 351.964 946.295 351.705C960.469 351.415 971.861 344.416 985.542 342.742" fill="white"/>
<path d="M985.446 345.497C968.895 347.786 953.64 352.373 936.769 352.075C926.979 351.899 919.352 344.957 909.411 348.766L909.234 347.701C921.011 342.211 933.657 351.964 946.295 351.705C960.469 351.415 971.861 344.416 985.542 342.742" stroke="white" stroke-width="0.00153846" stroke-linejoin="round"/>
<path fill-rule="evenodd" clip-rule="evenodd" d="M1002.24 291.746C975.906 293.944 949.486 299.296 923.23 301.116C905.51 302.344 887.866 293.726 870.257 292.235L870.333 291.485C887.741 292.434 905.571 299.871 922.979 298.891C949.646 297.388 974.19 290.798 1001.24 292.041" fill="white"/>
<path d="M1002.24 291.746C975.906 293.944 949.486 299.296 923.23 301.116C905.51 302.344 887.866 293.726 870.257 292.235L870.333 291.485C887.741 292.434 905.571 299.871 922.979 298.891C949.646 297.388 974.19 290.798 1001.24 292.041" stroke="white" stroke-width="0.00153846" stroke-linejoin="round"/>
<path fill-rule="evenodd" clip-rule="evenodd" d="M655.461 219.405C655.331 191.805 631.562 202.624 616.659 192.411C609.533 187.53 604.401 174.178 595.679 175.947L595.913 175.436C605.144 172.638 609.804 185.855 616.901 191.235C632.175 202.818 657.007 189.417 656.825 219.379" fill="white"/>
<path d="M655.461 219.405C655.331 191.805 631.562 202.624 616.659 192.411C609.533 187.53 604.401 174.178 595.679 175.947L595.913 175.436C605.144 172.638 609.804 185.855 616.901 191.235C632.175 202.818 657.007 189.417 656.825 219.379" stroke="white" stroke-width="0.00153846" stroke-linejoin="round"/>
<path fill-rule="evenodd" clip-rule="evenodd" d="M516.015 220.42C515.104 222.846 512.959 225.882 510.644 228.667L516.015 220.42Z" fill="white"/>
<path d="M516.015 220.42C515.104 222.846 512.959 225.882 510.644 228.667" stroke="white" stroke-width="0.00153846" stroke-linejoin="round"/>
<path fill-rule="evenodd" clip-rule="evenodd" d="M1098.3 315.942C1089.73 316.635 1081.34 320.304 1072.7 320.356C1050.66 320.495 1028.24 311.326 1006.68 318.789L1006.43 317.867C1036.4 310.609 1069.49 325.781 1098.55 313.701" fill="white"/>
<path d="M1098.3 315.942C1089.73 316.635 1081.34 320.304 1072.7 320.356C1050.66 320.495 1028.24 311.326 1006.68 318.789L1006.43 317.867C1036.4 310.609 1069.49 325.781 1098.55 313.701" stroke="white" stroke-width="0.00153846" stroke-linejoin="round"/>
<path fill-rule="evenodd" clip-rule="evenodd" d="M1080.73 354.472C1059.17 363.611 1029.81 350.355 1006.96 349.319L1006.93 348.587C1022.89 347.147 1074 348.501 1082.43 357.655" fill="white"/>
<path d="M1080.73 354.472C1059.17 363.611 1029.81 350.355 1006.96 349.319L1006.93 348.587C1022.89 347.147 1074 348.501 1082.43 357.655" stroke="white" stroke-width="0.00153846" stroke-linejoin="round"/>
<path fill-rule="evenodd" clip-rule="evenodd" d="M936.895 340.702C931.426 340.463 925.959 340.225 920.49 339.986L920.495 339.53C925.976 339.667 931.456 339.805 936.937 339.942" fill="white"/>
<path d="M936.895 340.702C931.426 340.463 925.959 340.225 920.49 339.986L920.495 339.53C925.976 339.667 931.456 339.805 936.937 339.942" stroke="white" stroke-width="0.00153846" stroke-linejoin="round"/>
<path fill-rule="evenodd" clip-rule="evenodd" d="M446.988 286.66C426.998 288.764 405.083 283.531 385.152 282.381C362.836 281.093 339.994 289.605 318.164 290.931C308.849 291.496 309.717 298.337 302.227 300.026C297.74 301.038 286.799 295.335 288.533 300.402C288.873 301.397 305.472 314.651 301.369 324.019L299.752 324.047C305.46 318.036 284.307 303.105 288.643 297.592C291.406 294.078 300.464 299.326 304.81 294.758C321.826 276.879 386.999 278.525 409.166 281.27C419.566 282.558 434.917 279.095 444.14 283.842" fill="white"/>
<path d="M446.988 286.66C426.998 288.764 405.083 283.531 385.152 282.381C362.836 281.093 339.994 289.605 318.164 290.931C308.849 291.496 309.717 298.337 302.227 300.026C297.74 301.038 286.799 295.335 288.533 300.402C288.873 301.397 305.472 314.651 301.369 324.019L299.752 324.047C305.46 318.036 284.307 303.105 288.643 297.592C291.406 294.078 300.464 299.326 304.81 294.758C321.826 276.879 386.999 278.525 409.166 281.27C419.566 282.558 434.917 279.095 444.14 283.842" stroke="white" stroke-width="0.00153846" stroke-linejoin="round"/>
<path fill-rule="evenodd" clip-rule="evenodd" d="M460.928 74.2766C460.859 79.4726 464.031 106.522 459.498 102.755L460.431 105.19C449.967 107.255 458.431 81.0754 460.726 76.4935" fill="white"/>
<path d="M460.928 74.2766C460.859 79.4726 464.031 106.522 459.498 102.755L460.431 105.19C449.967 107.255 458.431 81.0754 460.726 76.4935" stroke="white" stroke-width="0.00153846" stroke-linejoin="round"/>
<path fill-rule="evenodd" clip-rule="evenodd" d="M857.024 55.9351C850.259 54.3428 844.92 48.2615 838.331 45.7068C832.399 43.4069 814.354 48.1094 813.945 39.7021L816.542 38.3048C818.365 38.4757 816.356 38.0164 816.07 41.7661C816.03 42.2955 816.653 40.9576 816.996 40.6225C821.083 36.6421 825.324 37.6892 830.532 38.4981C840.466 40.0411 857.192 45.8387 857.61 59.8678" fill="white"/>
<path d="M857.024 55.9351C850.259 54.3428 844.92 48.2615 838.331 45.7068C832.399 43.4069 814.354 48.1094 813.945 39.7021L816.542 38.3048C818.365 38.4757 816.356 38.0164 816.07 41.7661C816.03 42.2955 816.653 40.9576 816.996 40.6225C821.083 36.6421 825.324 37.6892 830.532 38.4981C840.466 40.0411 857.192 45.8387 857.61 59.8678" stroke="white" stroke-width="0.00153846" stroke-linejoin="round"/>
<path fill-rule="evenodd" clip-rule="evenodd" d="M884.452 30.246C885.781 42.4589 864.667 42.0786 860.312 48.9871C857.263 53.8244 859.349 58.2728 856.701 61.3411L854.909 61.3659C845.203 47.732 879.442 27.1539 886.628 30.8889" fill="white"/>
<path d="M884.452 30.246C885.781 42.4589 864.667 42.0786 860.312 48.9871C857.263 53.8244 859.349 58.2728 856.701 61.3411L854.909 61.3659C845.203 47.732 879.442 27.1539 886.628 30.8889" stroke="white" stroke-width="0.00153846" stroke-linejoin="round"/>
<path fill-rule="evenodd" clip-rule="evenodd" d="M914.668 72.6271C913.521 75.9507 906.993 78.0383 904.806 79.4955C901.897 81.4355 901.291 82.4571 898.974 85.5033C898.522 86.097 898.08 88.5299 898.354 87.797C900.849 81.1452 881.279 78.5238 877.506 81.4439L876.319 78.3141C882.246 74.2104 888.524 74.3792 894.702 78.2644C896.172 79.1885 902.319 89.3639 897.958 89.0737C885.889 88.27 909.698 71.7762 916.059 71.8678" fill="white"/>
<path d="M914.668 72.6271C913.521 75.9507 906.993 78.0383 904.806 79.4955C901.897 81.4355 901.291 82.4571 898.974 85.5033C898.522 86.097 898.08 88.5299 898.354 87.797C900.849 81.1452 881.279 78.5238 877.506 81.4439L876.319 78.3141C882.246 74.2104 888.524 74.3792 894.702 78.2644C896.172 79.1885 902.319 89.3639 897.958 89.0737C885.889 88.27 909.698 71.7762 916.059 71.8678" stroke="white" stroke-width="0.00153846" stroke-linejoin="round"/>
<path fill-rule="evenodd" clip-rule="evenodd" d="M849.308 105.9C846.744 107.479 844.136 108.955 841.619 110.635C840.578 111.33 839.428 114.405 838.77 113.217C836.685 109.458 837.335 100.236 829.028 105.28L828.958 103.945C832.107 101.54 841.236 102.613 840.549 109.549C840.47 110.356 840.314 111.832 839.64 111.73C835.311 111.076 846.692 105.33 850.763 103.446" fill="white"/>
<path d="M849.308 105.9C846.744 107.479 844.136 108.955 841.619 110.635C840.578 111.329 839.428 114.405 838.77 113.217C836.685 109.458 837.335 100.236 829.028 105.28L828.958 103.945C832.107 101.54 841.236 102.613 840.549 109.549C840.47 110.356 840.314 111.832 839.64 111.73C835.311 111.076 846.692 105.33 850.763 103.446" stroke="white" stroke-width="0.00153846" stroke-linejoin="round"/>
<path fill-rule="evenodd" clip-rule="evenodd" d="M1383.58 254.443C1396.7 245.829 1414.05 240.48 1425.94 229.382C1432.19 223.558 1442.17 203.652 1448.62 201.294C1478.2 190.502 1507.44 172.684 1536.37 158.625C1544.38 154.731 1552.21 147.203 1560.73 144.843C1575.2 140.83 1590.26 145.76 1604.64 140.82C1619.68 135.658 1627.66 127.517 1640.77 118.017C1648.64 112.311 1659.19 111.222 1667.59 106.353C1692.06 92.1731 1697.97 109.296 1716.46 98.7546V97.542C1705.41 92.1375 1660.21 99.3822 1638.61 113.785C1632.41 117.92 1625.85 127.973 1619.84 130.965C1601.11 140.283 1584.61 134.377 1567.47 138.133C1553.93 141.099 1541.24 150.863 1529.17 158.044C1503.67 173.212 1475.14 185.228 1448.53 197.067C1440.52 200.634 1431.56 219.591 1425.16 226.548C1414.14 238.509 1395.43 240.897 1383.34 253.637" fill="white"/>
<path d="M1383.58 254.443C1396.7 245.829 1414.05 240.48 1425.94 229.382C1432.19 223.558 1442.17 203.652 1448.62 201.294C1478.2 190.502 1507.44 172.684 1536.37 158.625C1544.38 154.731 1552.21 147.203 1560.73 144.843C1575.2 140.83 1590.26 145.76 1604.64 140.82C1619.68 135.658 1627.66 127.517 1640.77 118.017C1648.64 112.311 1659.19 111.222 1667.59 106.353C1692.06 92.1731 1697.97 109.296 1716.46 98.7546V97.542C1705.41 92.1375 1660.21 99.3822 1638.61 113.785C1632.41 117.92 1625.85 127.973 1619.84 130.965C1601.11 140.283 1584.61 134.377 1567.47 138.133C1553.93 141.099 1541.24 150.863 1529.17 158.044C1503.67 173.212 1475.14 185.228 1448.53 197.067C1440.52 200.634 1431.56 219.591 1425.16 226.548C1414.14 238.509 1395.43 240.897 1383.34 253.637" stroke="white" stroke-width="0.00153846" stroke-linejoin="round"/>
<path fill-rule="evenodd" clip-rule="evenodd" d="M1714.5 90.09C1717.49 76.7314 1712.84 61.0661 1715.74 48.1469C1716.26 45.7845 1725.81 49.6207 1732.55 45.9348C1739.01 42.397 1736.1 76.9346 1736.09 82.6041C1736.08 86.4233 1734.61 97.7268 1735.43 94.0346C1736.18 90.6375 1741.32 97.4854 1737.55 87.597H1736.06C1733.4 94.5764 1737.87 104.455 1741.89 95.5835C1745.72 87.106 1745.04 44.8798 1736.81 40.6676C1732.8 38.6146 1729.38 44.169 1726.18 44.2444C1702.37 44.8056 1715.12 66.1076 1711.94 88.4328" fill="white"/>
<path d="M1714.5 90.09C1717.49 76.7314 1712.84 61.0661 1715.74 48.1469C1716.26 45.7845 1725.81 49.6207 1732.55 45.9348C1739.01 42.397 1736.1 76.9346 1736.09 82.6041C1736.08 86.4233 1734.61 97.7268 1735.43 94.0346C1736.18 90.6375 1741.32 97.4854 1737.55 87.597H1736.06C1733.4 94.5764 1737.87 104.455 1741.89 95.5835C1745.72 87.106 1745.04 44.8798 1736.81 40.6676C1732.8 38.6146 1729.38 44.169 1726.18 44.2444C1702.37 44.8056 1715.12 66.1076 1711.94 88.4328" stroke="white" stroke-width="0.00153846" stroke-linejoin="round"/>
<path fill-rule="evenodd" clip-rule="evenodd" d="M1749.55 98.2797C1751.61 115.165 1768.07 104.19 1774.75 97.0555C1776.32 95.3762 1782.74 85.0653 1782.16 85.0151C1777.17 84.5836 1761.44 92.2021 1760.17 88.7072C1759.24 86.1315 1764.79 87.5056 1766.9 86.3046C1769.38 84.8987 1772.79 81.3641 1775.57 81.2042C1782.65 80.7967 1789.3 88.8906 1794.84 88.7209C1805.62 88.3907 1815.97 83.6782 1826.8 83.6718C1830.01 83.6699 1816.32 80.2878 1819.6 86.2479C1822.19 90.9613 1832.54 83.6231 1833.51 89.1476C1834.61 95.4594 1825.53 85.5452 1830.17 95.6675C1830.7 96.8155 1836.86 93.2875 1836.98 93.2298C1844.36 89.6987 1852.07 86.5164 1859.7 82.9978C1871.32 77.639 1878.07 89.3338 1891.46 84.3453C1896.78 82.3633 1875.87 80.16 1875.74 80.1424C1874.59 79.9825 1876.67 83.099 1877.77 83.5301C1880.53 84.6064 1883.31 81.2964 1885.78 79.4903C1887.36 78.3344 1903.13 63.3039 1903.11 69.3604C1903.07 81.274 1919.16 65.4901 1919.36 66.1422C1920.47 69.7519 1916.75 73.8074 1919.91 77.0858C1920.51 77.7131 1927.32 65.0941 1928.9 63.2649C1935.15 55.9973 1947.26 40.5037 1958.02 42.2918C1961.92 42.9403 1954.76 45.7137 1954.89 47.2975C1955.51 54.5781 1960.54 66.8906 1950.8 66.6066C1947.96 66.5236 1968 69.2727 1967.93 65.1774C1967.83 59.738 1954.59 71.1461 1950.3 69.7865C1948.68 69.271 1955.2 70.5819 1954.79 72.5371L1955.54 72.3882C1956.88 64.3194 1950.74 72.8402 1950.88 72.734C1956.49 68.4471 1963.15 66.2444 1967.86 64.4813C1973.48 62.3791 1955.79 65.7934 1950.65 69.23C1947.37 71.4261 1958.57 65.1442 1959.45 60.7598C1960.25 56.8042 1960.11 48.5273 1956.74 48.9913C1953.95 49.3755 1961.31 40.3897 1958.69 39.1534C1949.86 34.9742 1917.03 63.5839 1921.83 75.9473C1923.46 80.1594 1921.67 64.4675 1918.07 62.7567C1915.25 61.4161 1906.42 71.5035 1903.27 72.1834C1901.6 72.5449 1904.79 67.3824 1903.49 66.0726C1895.64 58.1746 1890.42 75.0505 1885.41 78.0018C1882.08 79.964 1872.1 84.3613 1875.8 84.7305C1881.03 85.2527 1896.51 80.7785 1891.29 81.4142C1878.11 83.0194 1868.28 73.5967 1854.87 81.1198C1848.28 84.8162 1842.97 87.9772 1836.55 89.2816C1833.97 89.8053 1828.52 97.3115 1830.62 95.4445C1840.78 86.4137 1826.39 82.4054 1821.88 89.4275C1821.69 89.7334 1829.59 80.5759 1826.38 80.4413C1816.18 80.0132 1806.37 84.8488 1796.4 85.2489C1789.62 85.5207 1785.24 78.2697 1778.01 78.2558C1773.01 78.2464 1759.44 85.0723 1758.3 90.793C1756.55 99.5887 1780.65 83.7206 1781.07 84.0604C1783.55 86.0737 1778.44 91.0158 1775.86 92.8314C1767.98 98.3693 1753.36 114.285 1750.68 96.7275" fill="white"/>
<path d="M1749.55 98.2797C1751.61 115.165 1768.07 104.19 1774.75 97.0555C1776.32 95.3762 1782.74 85.0653 1782.16 85.0151C1777.17 84.5836 1761.44 92.2021 1760.17 88.7072C1759.24 86.1315 1764.79 87.5056 1766.9 86.3046C1769.38 84.8987 1772.79 81.3641 1775.57 81.2042C1782.65 80.7967 1789.3 88.8906 1794.84 88.7209C1805.62 88.3907 1815.97 83.6782 1826.8 83.6718C1830.01 83.6699 1816.32 80.2878 1819.6 86.2479C1822.19 90.9613 1832.54 83.6231 1833.51 89.1476C1834.61 95.4594 1825.53 85.5452 1830.17 95.6675C1830.7 96.8155 1836.86 93.2875 1836.98 93.2298C1844.36 89.6987 1852.07 86.5164 1859.7 82.9978C1871.32 77.639 1878.07 89.3338 1891.46 84.3453C1896.78 82.3633 1875.87 80.16 1875.74 80.1424C1874.59 79.9825 1876.67 83.099 1877.77 83.5301C1880.53 84.6064 1883.31 81.2964 1885.78 79.4903C1887.36 78.3345 1903.13 63.3039 1903.11 69.3604C1903.07 81.274 1919.16 65.4901 1919.36 66.1422C1920.47 69.7519 1916.75 73.8074 1919.91 77.0858C1920.51 77.7131 1927.32 65.0941 1928.9 63.2649C1935.15 55.9973 1947.26 40.5037 1958.02 42.2918C1961.92 42.9403 1954.76 45.7137 1954.89 47.2975C1955.51 54.5781 1960.54 66.8906 1950.8 66.6066C1947.96 66.5236 1968 69.2727 1967.93 65.1774C1967.83 59.738 1954.59 71.1461 1950.3 69.7865C1948.68 69.271 1955.2 70.5819 1954.79 72.5371L1955.54 72.3882C1956.88 64.3194 1950.74 72.8402 1950.88 72.734C1956.49 68.4471 1963.15 66.2444 1967.86 64.4813C1973.48 62.3791 1955.79 65.7934 1950.65 69.23C1947.37 71.4261 1958.57 65.1442 1959.45 60.7598C1960.25 56.8042 1960.11 48.5273 1956.74 48.9913C1953.95 49.3755 1961.31 40.3897 1958.69 39.1534C1949.86 34.9742 1917.03 63.5839 1921.83 75.9473C1923.46 80.1594 1921.67 64.4675 1918.07 62.7567C1915.25 61.4161 1906.42 71.5035 1903.27 72.1834C1901.6 72.5449 1904.79 67.3824 1903.49 66.0726C1895.64 58.1746 1890.42 75.0505 1885.41 78.0018C1882.08 79.964 1872.1 84.3613 1875.8 84.7305C1881.03 85.2527 1896.51 80.7785 1891.29 81.4142C1878.11 83.0194 1868.28 73.5967 1854.87 81.1198C1848.28 84.8162 1842.97 87.9772 1836.55 89.2816C1833.97 89.8053 1828.52 97.3115 1830.62 95.4446C1840.78 86.4137 1826.39 82.4054 1821.88 89.4275C1821.69 89.7334 1829.59 80.5759 1826.38 80.4413C1816.18 80.0132 1806.37 84.8488 1796.4 85.2489C1789.62 85.5207 1785.24 78.2697 1778.01 78.2558C1773.01 78.2464 1759.44 85.0723 1758.3 90.793C1756.55 99.5887 1780.65 83.7206 1781.07 84.0604C1783.55 86.0736 1778.44 91.0158 1775.86 92.8314C1767.98 98.3693 1753.36 114.285 1750.68 96.7275" stroke="white" stroke-width="0.00153846" stroke-linejoin="round"/>
<path fill-rule="evenodd" clip-rule="evenodd" d="M1968.84 74.3066C1970.14 87.8528 1998.71 78.8804 2007.87 77.023C2012.02 76.1809 2023.38 77.0412 2020.2 73.7218C2016.55 69.9032 2009.41 78.0858 2013.65 81.2794C2014.3 81.7648 2038.54 76.8486 2040.87 73.8596C2047.77 65.0012 2038.13 61.1388 2033.29 57.1137C2031.66 55.7544 2039.07 52.6952 2039.01 55.0795C2038.96 56.9744 2035.01 57.0197 2035.46 58.84C2037.52 67.3625 2051.94 78.7168 2057.91 67.9696C2062.88 59.0288 2046.11 52.5161 2050.85 45.4079C2056.22 37.381 2085.41 39.9214 2090.16 39.4267C2102.85 38.1072 2109.51 31.464 2119.06 23.2607C2121.27 21.3579 2122.72 29.9642 2125.41 29.4232C2130.73 28.3509 2138.64 24.4845 2137.63 17.1206C2137.24 14.257 2142.53 19.3423 2144.81 18.3683C2154.76 14.1183 2160.36 -2.72327 2171.96 3.78515L2172.07 3.50702C2160.88 -7.2467 2135.45 24.0204 2126.22 27.7058C2122.19 29.3162 2120.64 18.5359 2116.62 21.476C2114.8 22.81 2114.03 28.2388 2112.56 29.9538C2109.92 33.0281 2095.77 36.2814 2090.09 36.939C2081.25 37.9625 2053.25 32.2452 2047.94 47.9221C2045.01 56.5662 2063.75 57.2162 2057.72 67.203C2054.45 72.6309 2042.44 68.3536 2040.21 66.571C2034.4 61.9209 2041.16 55.3683 2037.58 52.1803C2037.03 51.6912 2028.91 57.3264 2032.12 60.3061C2033.97 62.0129 2046.11 66.2522 2039.18 71.3168C2033.26 75.6361 2025.47 73.3592 2018.63 77.3303C2008.66 83.1248 2018.61 78.4754 2019.75 71.2632C2020.52 66.403 2011.73 73.6564 2007.66 74.4589C1999.01 76.1652 1971.78 84.7607 1970.24 74.8091" fill="white"/>
<path d="M1968.84 74.3066C1970.14 87.8528 1998.71 78.8804 2007.87 77.023C2012.02 76.1809 2023.38 77.0412 2020.2 73.7218C2016.55 69.9032 2009.41 78.0858 2013.65 81.2794C2014.3 81.7648 2038.54 76.8486 2040.87 73.8596C2047.77 65.0012 2038.13 61.1388 2033.29 57.1137C2031.66 55.7544 2039.07 52.6952 2039.01 55.0795C2038.96 56.9744 2035.01 57.0197 2035.46 58.84C2037.52 67.3625 2051.94 78.7168 2057.91 67.9696C2062.88 59.0288 2046.11 52.5161 2050.85 45.4079C2056.22 37.381 2085.41 39.9214 2090.16 39.4267C2102.85 38.1072 2109.51 31.464 2119.06 23.2607C2121.27 21.3579 2122.72 29.9642 2125.41 29.4232C2130.73 28.3509 2138.64 24.4845 2137.63 17.1206C2137.24 14.257 2142.53 19.3423 2144.81 18.3683C2154.76 14.1183 2160.36 -2.72327 2171.96 3.78515L2172.07 3.50702C2160.88 -7.2467 2135.45 24.0204 2126.22 27.7058C2122.19 29.3162 2120.64 18.5359 2116.62 21.476C2114.8 22.81 2114.03 28.2388 2112.56 29.9538C2109.92 33.0281 2095.77 36.2814 2090.09 36.939C2081.25 37.9625 2053.25 32.2452 2047.94 47.9221C2045.01 56.5662 2063.75 57.2162 2057.72 67.203C2054.45 72.6309 2042.44 68.3536 2040.21 66.571C2034.4 61.9209 2041.16 55.3683 2037.58 52.1803C2037.03 51.6912 2028.91 57.3264 2032.12 60.3061C2033.97 62.0129 2046.11 66.2522 2039.18 71.3168C2033.26 75.6361 2025.47 73.3592 2018.63 77.3303C2008.66 83.1248 2018.61 78.4754 2019.75 71.2632C2020.52 66.403 2011.73 73.6564 2007.66 74.4589C1999.01 76.1652 1971.78 84.7607 1970.24 74.8091" stroke="white" stroke-width="0.00153846" stroke-linejoin="round"/>
<path fill-rule="evenodd" clip-rule="evenodd" d="M1380.04 253.406C1368.57 253.993 1356.73 253.349 1345.7 257.383C1343.14 258.318 1326.36 266.645 1333.87 267.089L1334.54 265.793C1334.17 264.928 1331.58 266.96 1332.38 267.139C1341.6 269.19 1352.24 259.399 1361.52 258.957C1368.06 258.647 1374.46 258.584 1381.03 257.518" fill="white"/>
<path d="M1380.04 253.406C1368.57 253.993 1356.73 253.349 1345.7 257.383C1343.14 258.318 1326.36 266.645 1333.87 267.089L1334.54 265.793C1334.17 264.928 1331.58 266.96 1332.38 267.139C1341.6 269.19 1352.24 259.399 1361.52 258.957C1368.06 258.647 1374.46 258.584 1381.03 257.518" stroke="white" stroke-width="0.00153846" stroke-linejoin="round"/>
<path fill-rule="evenodd" clip-rule="evenodd" d="M1350.56 274.281C1378 278.531 1404.7 271.783 1431.91 272.63C1483.32 274.23 1535.12 283.876 1586.42 288.506L1586.62 286.799C1573.73 283.517 1561.08 284.669 1548.2 282.382C1483.5 270.879 1416.37 264.199 1351.09 272.102" fill="white"/>
<path d="M1350.56 274.281C1378 278.531 1404.7 271.783 1431.91 272.63C1483.32 274.23 1535.12 283.876 1586.42 288.506L1586.62 286.799C1573.73 283.517 1561.08 284.669 1548.2 282.382C1483.5 270.879 1416.37 264.199 1351.09 272.102" stroke="white" stroke-width="0.00153846" stroke-linejoin="round"/>
<path fill-rule="evenodd" clip-rule="evenodd" d="M1587.86 286.631C1616.59 292.786 1652.01 288.434 1681.22 286.556C1691.53 285.893 1700.94 286.583 1711.12 285.071C1717.28 284.157 1726.18 286.186 1725.38 285.071L1725.36 282.534C1725.53 282.362 1716.39 276.7 1708.86 279.998C1698.38 284.584 1691.47 280.149 1680.56 281.7C1655.29 285.289 1612.87 288.763 1588.51 283.651" fill="white"/>
<path d="M1587.86 286.631C1616.59 292.786 1652.01 288.434 1681.22 286.556C1691.53 285.893 1700.94 286.583 1711.12 285.071C1717.28 284.157 1726.18 286.186 1725.38 285.071L1725.36 282.534C1725.53 282.362 1716.39 276.7 1708.86 279.998C1698.38 284.584 1691.47 280.149 1680.56 281.7C1655.29 285.289 1612.87 288.763 1588.51 283.651" stroke="white" stroke-width="0.00153846" stroke-linejoin="round"/>
<path fill-rule="evenodd" clip-rule="evenodd" d="M1714.05 282.314C1710.14 285.228 1684.59 319.321 1703.91 312.212C1711.38 309.462 1698.66 303.379 1694.42 304.76C1690.12 306.158 1686.5 310.967 1683.8 314.996C1683.64 315.231 1683.53 316.054 1683.43 315.781C1682.95 314.544 1685.46 317.127 1686.59 317.297C1689.4 317.722 1681.07 314.563 1678.28 315.19C1670.69 316.901 1664.6 321.004 1657.32 323.776C1652.82 325.489 1637.38 326.375 1633.99 330.239C1628.27 336.762 1629.16 324.818 1618.88 328.355C1608.69 331.858 1618.31 338.074 1615.12 337.438C1591.26 332.692 1571.25 342.697 1549.54 348.174C1544.97 349.326 1536.66 337.026 1532.27 336.473C1525.9 335.665 1522.07 342.026 1529.04 345.569C1529.2 345.654 1529.6 345.988 1529.55 345.779C1527.86 338.097 1517.44 348.081 1512.99 349.305C1512.75 349.37 1512.2 348.686 1512.43 348.759C1520.54 351.297 1528.42 349.019 1536.03 351.611L1536.16 351.044C1526.57 345.357 1521.01 347.506 1512.22 353.605C1512.08 353.699 1529.58 353.348 1530.42 343.114C1530.81 338.42 1537.92 353.446 1551.54 353.023C1558.42 352.81 1567.76 345.283 1574.77 343.227C1582.24 341.037 1590.71 341.719 1598.33 340.838C1619.99 338.334 1637.48 336.991 1665.14 324.459C1677.66 318.79 1682.56 320.397 1688.7 315.551C1691.23 313.558 1706.15 306.89 1705.22 308.201C1699.25 316.629 1708.11 293.577 1715.01 287.316" fill="white"/>
<path d="M1714.05 282.314C1710.14 285.228 1684.59 319.321 1703.91 312.212C1711.38 309.462 1698.66 303.379 1694.42 304.76C1690.12 306.158 1686.5 310.967 1683.8 314.996C1683.64 315.231 1683.53 316.054 1683.43 315.781C1682.95 314.544 1685.46 317.127 1686.59 317.297C1689.4 317.722 1681.07 314.563 1678.28 315.19C1670.69 316.901 1664.6 321.004 1657.32 323.776C1652.82 325.489 1637.38 326.375 1633.99 330.239C1628.27 336.762 1629.16 324.818 1618.88 328.355C1608.69 331.858 1618.31 338.074 1615.12 337.438C1591.26 332.692 1571.25 342.697 1549.54 348.174C1544.97 349.326 1536.66 337.026 1532.27 336.473C1525.9 335.665 1522.07 342.026 1529.04 345.569C1529.2 345.654 1529.6 345.988 1529.55 345.779C1527.86 338.097 1517.44 348.081 1512.99 349.305C1512.75 349.37 1512.2 348.686 1512.43 348.759C1520.54 351.297 1528.42 349.019 1536.03 351.611L1536.16 351.044C1526.57 345.357 1521.01 347.506 1512.22 353.605C1512.08 353.699 1529.58 353.348 1530.42 343.114C1530.81 338.42 1537.92 353.446 1551.54 353.023C1558.42 352.81 1567.76 345.283 1574.77 343.227C1582.24 341.037 1590.71 341.719 1598.33 340.838C1619.99 338.334 1637.48 336.991 1665.14 324.459C1677.66 318.79 1682.56 320.397 1688.7 315.551C1691.23 313.558 1706.15 306.89 1705.22 308.201C1699.25 316.629 1708.11 293.577 1715.01 287.316" stroke="white" stroke-width="0.00153846" stroke-linejoin="round"/>
<path fill-rule="evenodd" clip-rule="evenodd" d="M1520.73 364.555C1494.41 355.236 1461.08 351.347 1434.61 360.332L1434.67 361.985C1461.09 353.408 1492.03 362.125 1519.1 362.729" fill="white"/>
<path d="M1520.73 364.555C1494.41 355.236 1461.08 351.347 1434.61 360.332L1434.67 361.985C1461.09 353.408 1492.03 362.125 1519.1 362.729" stroke="white" stroke-width="0.00153846" stroke-linejoin="round"/>
<path fill-rule="evenodd" clip-rule="evenodd" d="M1489.36 378.671C1481.96 378.589 1479.03 372.108 1471.09 370.658C1459.31 368.506 1430.79 372.839 1419.87 380.589L1420.32 382.24C1431.23 378.514 1448.13 372.834 1459.39 372.132C1471.8 371.359 1478.72 384.161 1490.25 379.51" fill="white"/>
<path d="M1489.36 378.671C1481.96 378.589 1479.03 372.108 1471.09 370.658C1459.31 368.506 1430.79 372.839 1419.87 380.589L1420.32 382.24C1431.23 378.514 1448.13 372.834 1459.39 372.132C1471.8 371.359 1478.72 384.161 1490.25 379.51" stroke="white" stroke-width="0.00153846" stroke-linejoin="round"/>
<path fill-rule="evenodd" clip-rule="evenodd" d="M1415.01 380.731C1407.11 381.232 1337.53 375.978 1335.56 382.522L1335.98 383.71C1346.52 379.606 1358.85 386.398 1369.72 387.108C1385.21 388.12 1399.84 386.444 1415.38 385.169" fill="white"/>
<path d="M1415.01 380.731C1407.11 381.232 1337.53 375.978 1335.56 382.522L1335.98 383.71C1346.52 379.606 1358.85 386.398 1369.72 387.108C1385.21 388.12 1399.84 386.444 1415.38 385.169" stroke="white" stroke-width="0.00153846" stroke-linejoin="round"/>
<path fill-rule="evenodd" clip-rule="evenodd" d="M1330.63 383.857C1319.32 375.962 1306.36 369.726 1292.96 371.823C1289.58 372.351 1287.53 378.991 1284.2 378.129C1271.52 374.849 1259.3 375.513 1245.37 373.604C1237.52 372.528 1223.81 361.75 1216.51 364.941C1207.41 368.92 1211.79 387.699 1197.65 389.604C1188.34 390.857 1182.33 382.002 1171.87 383.417C1165.56 384.27 1162.07 389.853 1155.9 389.929C1129.17 390.253 1100.86 380.204 1074.9 385.584L1074 390C1099.55 383.412 1130.47 395.323 1156.67 393.235C1165.5 392.532 1170.85 386.832 1180.16 387.345C1186.9 387.716 1191.06 393.63 1198.68 392.515C1212.2 390.535 1208.68 375.034 1215.83 368.835C1219.99 365.229 1239.18 374.87 1245.46 375.83C1273.92 380.18 1301.69 370.956 1327.48 384.576" fill="white"/>
<path d="M1330.63 383.857C1319.32 375.962 1306.36 369.726 1292.96 371.823C1289.58 372.351 1287.53 378.991 1284.2 378.129C1271.52 374.849 1259.3 375.513 1245.37 373.604C1237.52 372.528 1223.81 361.75 1216.51 364.941C1207.41 368.92 1211.79 387.699 1197.65 389.604C1188.34 390.857 1182.33 382.002 1171.87 383.417C1165.56 384.27 1162.07 389.853 1155.9 389.929C1129.17 390.253 1100.86 380.204 1074.9 385.584L1074 390C1099.55 383.412 1130.47 395.323 1156.67 393.235C1165.5 392.532 1170.85 386.832 1180.16 387.345C1186.9 387.716 1191.06 393.63 1198.68 392.515C1212.2 390.535 1208.68 375.034 1215.83 368.835C1219.99 365.229 1239.18 374.87 1245.46 375.83C1273.92 380.18 1301.69 370.956 1327.48 384.576" stroke="white" stroke-width="0.00153846" stroke-linejoin="round"/>
<path fill-rule="evenodd" clip-rule="evenodd" d="M1419.79 230.459C1382.36 222.574 1346.26 231.01 1308.69 229.477C1270.14 227.904 1232.99 230.606 1194.21 233.389C1177 234.625 1161.71 226.357 1144.86 227.021C1137.84 227.298 1135.84 229.966 1127.73 227.354C1122 225.51 1123.16 222.112 1117.07 222.371C1094.29 223.35 1070.02 221.963 1046.97 224.534C1038.9 225.433 1026.35 233.293 1019.55 231.208L1019.73 234.743C1030.67 238.447 1043.49 233.004 1054.76 232.368C1062.71 231.921 1070.95 235.409 1078.52 235.568C1091.07 235.831 1106.39 230.177 1119.03 231.635C1137.49 233.763 1157.93 241.962 1176.46 241.856C1257.55 241.392 1339.67 225.23 1420.66 233.144" fill="white"/>
<path d="M1419.79 230.459C1382.36 222.574 1346.26 231.01 1308.69 229.477C1270.14 227.904 1232.99 230.606 1194.21 233.389C1177 234.625 1161.71 226.357 1144.86 227.021C1137.84 227.298 1135.84 229.966 1127.73 227.354C1122 225.51 1123.16 222.112 1117.07 222.371C1094.29 223.35 1070.02 221.963 1046.97 224.534C1038.9 225.433 1026.35 233.293 1019.55 231.208L1019.73 234.743C1030.67 238.447 1043.49 233.004 1054.76 232.368C1062.71 231.921 1070.95 235.409 1078.52 235.568C1091.07 235.831 1106.39 230.177 1119.03 231.635C1137.49 233.763 1157.93 241.962 1176.46 241.856C1257.55 241.392 1339.67 225.23 1420.66 233.144" stroke="white" stroke-width="0.00153846" stroke-linejoin="round"/>
<path fill-rule="evenodd" clip-rule="evenodd" d="M1278.36 328.089C1290.64 327.551 1305.59 330.392 1314.07 329.135C1337.63 325.647 1363.42 320.066 1385.14 319.982C1394.02 319.946 1401.73 318.357 1409.9 314.038C1412.56 312.629 1415.26 308.244 1417.87 309.784C1424.13 313.474 1430 319.221 1436.83 322.714L1437.16 321.963C1430.27 318.421 1424.24 311.843 1417.5 308.682C1417.02 308.456 1390.5 317.844 1385.3 317.927C1362.65 318.286 1337.75 323.869 1314.31 327.632C1308.77 328.521 1309.5 323.483 1304.6 323.805C1295.98 324.374 1287.19 325.443 1278.58 326.308" fill="white"/>
<path d="M1278.36 328.089C1290.64 327.551 1305.59 330.392 1314.07 329.135C1337.63 325.647 1363.42 320.066 1385.14 319.982C1394.02 319.946 1401.73 318.357 1409.9 314.038C1412.56 312.629 1415.26 308.244 1417.87 309.784C1424.13 313.474 1430 319.221 1436.83 322.714L1437.16 321.963C1430.27 318.421 1424.24 311.843 1417.5 308.682C1417.02 308.456 1390.5 317.844 1385.3 317.927C1362.65 318.286 1337.75 323.869 1314.31 327.632C1308.77 328.521 1309.5 323.483 1304.6 323.805C1295.98 324.374 1287.19 325.443 1278.58 326.308" stroke="white" stroke-width="0.00153846" stroke-linejoin="round"/>
<path fill-rule="evenodd" clip-rule="evenodd" d="M1187.55 346.497C1204.11 348.786 1219.36 353.373 1236.23 353.075C1246.02 352.899 1253.65 345.957 1263.59 349.766L1263.77 348.701C1251.99 343.211 1239.34 352.964 1226.7 352.705C1212.53 352.415 1201.14 345.416 1187.46 343.742" fill="white"/>
<path d="M1187.55 346.497C1204.11 348.786 1219.36 353.373 1236.23 353.075C1246.02 352.899 1253.65 345.957 1263.59 349.766L1263.77 348.701C1251.99 343.211 1239.34 352.964 1226.7 352.705C1212.53 352.415 1201.14 345.416 1187.46 343.742" stroke="white" stroke-width="0.00153846" stroke-linejoin="round"/>
<path fill-rule="evenodd" clip-rule="evenodd" d="M1170.76 292.746C1197.09 294.944 1223.51 300.296 1249.77 302.116C1267.49 303.344 1285.13 294.726 1302.74 293.235L1302.67 292.485C1285.26 293.434 1267.43 300.871 1250.02 299.891C1223.35 298.388 1198.81 291.798 1171.76 293.041" fill="white"/>
<path d="M1170.76 292.746C1197.09 294.944 1223.51 300.296 1249.77 302.116C1267.49 303.344 1285.13 294.726 1302.74 293.235L1302.67 292.485C1285.26 293.434 1267.43 300.871 1250.02 299.891C1223.35 298.388 1198.81 291.798 1171.76 293.041" stroke="white" stroke-width="0.00153846" stroke-linejoin="round"/>
<path fill-rule="evenodd" clip-rule="evenodd" d="M1517.54 220.405C1517.67 192.805 1541.44 203.624 1556.34 193.411C1563.47 188.53 1568.6 175.178 1577.32 176.947L1577.09 176.436C1567.86 173.638 1563.2 186.855 1556.1 192.235C1540.83 203.818 1515.99 190.417 1516.18 220.379" fill="white"/>
<path d="M1517.54 220.405C1517.67 192.805 1541.44 203.624 1556.34 193.411C1563.47 188.53 1568.6 175.178 1577.32 176.947L1577.09 176.436C1567.86 173.638 1563.2 186.855 1556.1 192.235C1540.83 203.818 1515.99 190.417 1516.18 220.379" stroke="white" stroke-width="0.00153846" stroke-linejoin="round"/>
<path fill-rule="evenodd" clip-rule="evenodd" d="M1656.99 221.42C1657.9 223.846 1660.04 226.882 1662.36 229.667L1656.99 221.42Z" fill="white"/>
<path d="M1656.99 221.42C1657.9 223.846 1660.04 226.882 1662.36 229.667" stroke="white" stroke-width="0.00153846" stroke-linejoin="round"/>
<path fill-rule="evenodd" clip-rule="evenodd" d="M1074.7 316.942C1083.27 317.635 1091.66 321.304 1100.3 321.356C1122.34 321.495 1144.76 312.326 1166.32 319.789L1166.57 318.867C1136.6 311.609 1103.51 326.781 1074.45 314.701" fill="white"/>
<path d="M1074.7 316.942C1083.27 317.635 1091.66 321.304 1100.3 321.356C1122.34 321.495 1144.76 312.326 1166.32 319.789L1166.57 318.867C1136.6 311.609 1103.51 326.781 1074.45 314.701" stroke="white" stroke-width="0.00153846" stroke-linejoin="round"/>
<path fill-rule="evenodd" clip-rule="evenodd" d="M1092.27 355.472C1113.83 364.611 1143.19 351.355 1166.04 350.319L1166.07 349.587C1150.11 348.147 1099 349.501 1090.57 358.655" fill="white"/>
<path d="M1092.27 355.472C1113.83 364.611 1143.19 351.355 1166.04 350.319L1166.07 349.587C1150.11 348.147 1099 349.501 1090.57 358.655" stroke="white" stroke-width="0.00153846" stroke-linejoin="round"/>
<path fill-rule="evenodd" clip-rule="evenodd" d="M1236.11 341.702C1241.57 341.463 1247.04 341.225 1252.51 340.986L1252.5 340.53C1247.02 340.667 1241.54 340.805 1236.06 340.942" fill="white"/>
<path d="M1236.11 341.702C1241.57 341.463 1247.04 341.225 1252.51 340.986L1252.5 340.53C1247.02 340.667 1241.54 340.805 1236.06 340.942" stroke="white" stroke-width="0.00153846" stroke-linejoin="round"/>
<path fill-rule="evenodd" clip-rule="evenodd" d="M1726.01 287.66C1746 289.764 1767.92 284.531 1787.85 283.381C1810.16 282.093 1833.01 290.605 1854.84 291.931C1864.15 292.496 1863.28 299.337 1870.77 301.026C1875.26 302.038 1886.2 296.335 1884.47 301.402C1884.13 302.397 1867.53 315.651 1871.63 325.019L1873.25 325.047C1867.54 319.036 1888.69 304.105 1884.36 298.592C1881.59 295.078 1872.54 300.326 1868.19 295.758C1851.17 277.879 1786 279.525 1763.83 282.27C1753.43 283.558 1738.08 280.095 1728.86 284.842" fill="white"/>
<path d="M1726.01 287.66C1746 289.764 1767.92 284.531 1787.85 283.381C1810.16 282.093 1833.01 290.605 1854.84 291.931C1864.15 292.496 1863.28 299.337 1870.77 301.026C1875.26 302.038 1886.2 296.335 1884.47 301.402C1884.13 302.397 1867.53 315.651 1871.63 325.019L1873.25 325.047C1867.54 319.036 1888.69 304.105 1884.36 298.592C1881.59 295.078 1872.54 300.326 1868.19 295.758C1851.17 277.879 1786 279.525 1763.83 282.27C1753.43 283.558 1738.08 280.095 1728.86 284.842" stroke="white" stroke-width="0.00153846" stroke-linejoin="round"/>
<path fill-rule="evenodd" clip-rule="evenodd" d="M1712.07 75.2766C1712.14 80.4726 1708.97 107.522 1713.5 103.755L1712.57 106.19C1723.03 108.255 1714.57 82.0754 1712.27 77.4935" fill="white"/>
<path d="M1712.07 75.2766C1712.14 80.4726 1708.97 107.522 1713.5 103.755L1712.57 106.19C1723.03 108.255 1714.57 82.0754 1712.27 77.4935" stroke="white" stroke-width="0.00153846" stroke-linejoin="round"/>
<path fill-rule="evenodd" clip-rule="evenodd" d="M1258.33 73.6271C1259.48 76.9507 1266.01 79.0383 1268.19 80.4955C1271.1 82.4355 1271.71 83.4571 1274.03 86.5033C1274.48 87.097 1274.92 89.5299 1274.65 88.797C1272.15 82.1452 1291.72 79.5238 1295.49 82.4439L1296.68 79.3141C1290.75 75.2104 1284.48 75.3792 1278.3 79.2644C1276.83 80.1885 1270.68 90.3639 1275.04 90.0737C1287.11 89.27 1263.3 72.7762 1256.94 72.8678" fill="white"/>
<path d="M1258.33 73.6271C1259.48 76.9507 1266.01 79.0383 1268.19 80.4955C1271.1 82.4355 1271.71 83.4571 1274.03 86.5033C1274.48 87.097 1274.92 89.5299 1274.65 88.797C1272.15 82.1452 1291.72 79.5238 1295.49 82.4439L1296.68 79.3141C1290.75 75.2104 1284.48 75.3792 1278.3 79.2644C1276.83 80.1885 1270.68 90.3639 1275.04 90.0737C1287.11 89.27 1263.3 72.7762 1256.94 72.8678" stroke="white" stroke-width="0.00153846" stroke-linejoin="round"/>
<path fill-rule="evenodd" clip-rule="evenodd" d="M1323.69 106.9C1326.26 108.479 1328.86 109.955 1331.38 111.635C1332.42 112.33 1333.57 115.405 1334.23 114.217C1336.31 110.458 1335.66 101.236 1343.97 106.28L1344.04 104.945C1340.89 102.54 1331.76 103.613 1332.45 110.549C1332.53 111.356 1332.69 112.832 1333.36 112.73C1337.69 112.076 1326.31 106.33 1322.24 104.446" fill="white"/>
<path d="M1323.69 106.9C1326.26 108.479 1328.86 109.955 1331.38 111.635C1332.42 112.329 1333.57 115.405 1334.23 114.217C1336.31 110.458 1335.66 101.236 1343.97 106.28L1344.04 104.945C1340.89 102.54 1331.76 103.613 1332.45 110.549C1332.53 111.356 1332.69 112.832 1333.36 112.73C1337.69 112.076 1326.31 106.33 1322.24 104.446" stroke="white" stroke-width="0.00153846" stroke-linejoin="round"/>
</svg>
